HIERARCHY
ROOT Hips
{
	OFFSET -32.860001 56.121803 44.745396
	CHANNELS 6 Xposition Yposition Zposition Zrotation Xrotation Yrotation
	JOINT Chest
	{
		OFFSET -0.637402 0.831600 5.390099
		CHANNELS 6 Xposition Yposition Zposition Zrotation Xrotation Yrotation
		JOINT Chest2
		{
			OFFSET 0.000000 0.000000 4.429901
			CHANNELS 6 Xposition Yposition Zposition Zrotation Xrotation Yrotation
			JOINT Neck
			{
				OFFSET 0.000000 0.000000 10.301395
				CHANNELS 6 Xposition Yposition Zposition Zrotation Xrotation Yrotation
				JOINT Head
				{
					OFFSET 0.000000 0.000000 2.173897
					CHANNELS 6 Xposition Yposition Zposition Zrotation Xrotation Yrotation
					End Site
					{
						OFFSET 0.000000 0.000000 8.298004
					}
				}
			}
			JOINT LeftCollar
			{
				OFFSET 2.142401 -0.572701 5.717800
				CHANNELS 6 Xposition Yposition Zposition Zrotation Xrotation Yrotation
				JOINT LeftShoulder
				{
					OFFSET 5.674000 0.000000 0.000000
					CHANNELS 6 Xposition Yposition Zposition Zrotation Xrotation Yrotation
					JOINT LeftElbow
					{
						OFFSET 0.000000 0.000000 -12.238701
						CHANNELS 6 Xposition Yposition Zposition Zrotation Xrotation Yrotation
						JOINT LeftWrist
						{
							OFFSET 0.000000 0.000000 -10.253700
							CHANNELS 6 Xposition Yposition Zposition Zrotation Xrotation Yrotation
							End Site
							{
								OFFSET 0.000000 0.000000 -2.173901
							}
						}
					}
				}
			}
			JOINT RightCollar
			{
				OFFSET -2.882599 -1.580101 6.695801
				CHANNELS 6 Xposition Yposition Zposition Zrotation Xrotation Yrotation
				JOINT RightShoulder
				{
					OFFSET -4.235600 0.000000 0.000000
					CHANNELS 6 Xposition Yposition Zposition Zrotation Xrotation Yrotation
					JOINT RightElbow
					{
						OFFSET 0.000000 0.000000 -10.709900
						CHANNELS 6 Xposition Yposition Zposition Zrotation Xrotation Yrotation
						JOINT RightWrist
						{
							OFFSET 0.000000 0.000000 -11.716801
							CHANNELS 6 Xposition Yposition Zposition Zrotation Xrotation Yrotation
							End Site
							{
								OFFSET 0.000000 0.000000 -2.173901
							}
						}
					}
				}
			}
		}
	}
	JOINT LeftHip
	{
		OFFSET 2.279499 0.210400 -2.475502
		CHANNELS 6 Xposition Yposition Zposition Zrotation Xrotation Yrotation
		JOINT LeftKnee
		{
			OFFSET 0.000000 -0.000004 -20.742800
			CHANNELS 6 Xposition Yposition Zposition Zrotation Xrotation Yrotation
			JOINT LeftAnkle
			{
				OFFSET 0.000000 0.000000 -16.666000
				CHANNELS 6 Xposition Yposition Zposition Zrotation Xrotation Yrotation
				End Site
				{
					OFFSET 0.000000 -8.310898 0.000000
				}
			}
		}
	}
	JOINT RightHip
	{
		OFFSET -1.961899 0.232300 -2.727402
		CHANNELS 6 Xposition Yposition Zposition Zrotation Xrotation Yrotation
		JOINT RightKnee
		{
			OFFSET 0.000000 -0.000004 -20.526800
			CHANNELS 6 Xposition Yposition Zposition Zrotation Xrotation Yrotation
			JOINT RightAnkle
			{
				OFFSET 0.000000 0.000000 -16.867300
				CHANNELS 6 Xposition Yposition Zposition Zrotation Xrotation Yrotation
				End Site
				{
					OFFSET 0.000000 -7.186401 0.000000
				}
			}
		}
	}
}
MOTION
Frames: 7
Frame Time: 0.041667
-13.941294 -22.901001 33.585388 1015.556567 -4.753130 20.085346 -0.637403 0.831600 5.390095 -26.496180 14.447894 24.640321 0.000001 0.000001 4.429906 5.027269 -5.712393 -0.535956 0.000000 -0.000004 10.301404 413.361874 1.610809 -22.161348 0.000000 -0.000000 2.173898 -356.990793 4.196482 5.074818 2.142403 -0.572699 5.717807 -10.248526 -2.528878 11.335701 5.673997 0.000009 -0.000007 121.352996 180.014144 84.808704 -0.000007 0.000000 -12.238705 -306.644867 -381.793286 -325.555994 0.000006 -0.000003 -10.253703 259.098964 30.881365 -65.582083 -2.882602 -1.580097 6.695803 -3.287584 -0.807690 21.574836 -4.235599 0.000004 0.000002 39.832301 -13.222685 113.413529 0.000004 0.000005 -10.709905 -75.900627 -10.123640 -68.614755 -0.000005 -0.000009 -11.716805 162.500036 -22.932043 -106.107016 2.279494 0.210397 -2.475506 215.818828 28.508368 46.502513 0.000002 -0.000001 -20.742798 -369.191778 -32.391124 47.845871 -0.000004 -0.000001 -16.666002 464.595478 2.208823 52.189578 -1.961901 0.232302 -2.727409 -424.462844 -36.060721 -58.417638 0.000000 -0.000001 -20.526802 477.166031 62.780326 -68.894117 -0.000002 0.000002 -16.867302 -3.868511 24.344360 -0.208482
-13.940693 -22.902702 33.581398 1015.579079 -4.801906 20.099698 -0.637405 0.831595 5.390100 -26.592600 14.455810 24.651765 -0.000002 0.000004 4.429897 5.084721 -5.710039 -0.537196 0.000001 -0.000010 10.301392 413.440120 1.555796 -22.203825 -0.000001 0.000001 2.173905 -357.034260 4.190074 5.058364 2.142400 -0.572701 5.717797 -10.101757 -2.659287 11.348831 5.674000 0.000008 -0.000001 121.292835 179.878018 84.924639 0.000003 0.000004 -12.238700 -306.144569 -381.492184 -325.344696 0.000010 0.000007 -10.253700 258.649866 30.925567 -65.603427 -2.882601 -1.580095 6.695795 -2.938462 -0.640704 20.964431 -4.235608 -0.000002 0.000003 39.447949 -12.434855 114.075839 0.000009 -0.000003 -10.709893 -76.449570 -10.004918 -68.575318 0.000000 -0.000003 -11.716805 162.558024 -23.066278 -105.714622 2.279495 0.210394 -2.475504 215.957604 28.584243 46.464537 0.000002 -0.000006 -20.742800 -369.331469 -32.301699 47.901790 -0.000004 -0.000000 -16.666002 464.542093 2.213183 52.194274 -1.961897 0.232295 -2.727406 -424.426616 -36.031171 -58.364882 0.000001 -0.000004 -20.526800 476.826489 63.066203 -68.621736 -0.000005 0.000008 -16.867300 -3.566920 24.437268 -0.210226
-13.940897 -22.905205 33.578201 1015.583341 -4.853123 20.105401 -0.637403 0.831605 5.390094 -26.654596 14.461758 24.654883 -0.000003 -0.000002 4.429895 5.133241 -5.708000 -0.538089 0.000001 -0.000008 10.301398 413.493587 1.525818 -22.220216 0.000003 -0.000002 2.173902 -357.056800 4.185065 5.033996 2.142393 -0.572702 5.717805 -9.999925 -2.745222 11.396328 5.673993 0.000006 -0.000002 121.269012 179.751919 84.986364 -0.000002 -0.000007 -12.238693 -305.923080 -381.366782 -325.247215 -0.000003 0.000000 -10.253712 258.515174 30.944162 -65.639095 -2.882606 -1.580103 6.695801 -2.746844 -0.496427 20.684620 -4.235602 0.000004 -0.000001 39.266450 -12.194218 114.424779 0.000006 0.000005 -10.709895 -78.807754 -4.133270 -68.807592 -0.000007 -0.000003 -11.716803 168.843519 -23.055025 -105.287134 2.279502 0.210401 -2.475500 216.208272 28.717325 46.372432 0.000000 0.000000 -20.742802 -369.527386 -32.150520 47.996484 -0.000003 0.000007 -16.666006 464.441607 2.215298 52.203952 -1.961893 0.232304 -2.727407 -424.374024 -36.007764 -58.310268 0.000006 -0.000005 -20.526804 476.483996 63.343311 -68.342927 -0.000001 0.000003 -16.867302 -3.264717 24.527996 -0.218684
-13.942196 -22.908516 33.576492 1015.570992 -4.906513 20.090406 -0.637399 0.831600 5.390095 -26.685626 14.458262 24.668193 -0.000004 0.000005 4.429895 5.167973 -5.701237 -0.538387 0.000003 -0.000002 10.301395 413.526372 1.502146 -22.221945 -0.000005 0.000004 2.173907 -357.050980 4.179689 5.013527 2.142394 -0.572700 5.717796 -9.925027 -2.814724 11.439039 5.674001 0.000009 -0.000003 121.270623 179.634849 85.030227 -0.000012 -0.000005 -12.238700 -305.665746 -381.223894 -325.153888 0.000001 -0.000002 -10.253700 258.319585 30.937315 -65.667857 -2.882606 -1.580091 6.695798 -2.519168 -0.398777 20.305251 -4.235605 0.000004 0.000001 39.090884 -11.733029 114.840929 0.000010 0.000007 -10.709892 -79.307546 -3.658088 -68.704893 -0.000006 0.000005 -11.716797 169.329856 -23.211269 -104.919567 2.279503 0.210400 -2.475508 216.530042 28.870619 46.235395 0.000001 -0.000006 -20.742802 -369.713905 -31.945147 48.133057 -0.000002 0.000002 -16.666006 464.289704 2.219444 52.188765 -1.961898 0.232299 -2.727402 -424.311131 -35.993615 -58.250783 0.000005 -0.000004 -20.526802 476.220405 63.554002 -68.119485 0.000001 0.000006 -16.867304 -3.029473 24.602731 -0.224902
-13.943899 -22.912193 33.576096 1015.546404 -4.952298 20.057083 -0.637406 0.831595 5.390105 -26.677337 14.446542 24.680620 0.000000 0.000007 4.429903 5.183991 -5.687633 -0.537960 0.000005 -0.000008 10.301395 413.523503 1.495103 -22.200647 -0.000005 -0.000003 2.173902 -357.025927 4.182666 4.987271 2.142403 -0.572702 5.717806 -9.869549 -2.883505 11.425772 5.673995 0.000009 -0.000005 121.275596 179.588213 85.106070 -0.000006 -0.000005 -12.238701 -305.450185 -381.096470 -325.092716 0.000000 0.000002 -10.253706 258.118122 30.909594 -65.699781 -2.882598 -1.580102 6.695800 -2.755819 -0.519882 20.810176 -4.235600 0.000000 0.000000 39.515383 -12.425897 114.292438 0.000002 0.000002 -10.709897 -78.855538 -3.812418 -68.652328 -0.000006 -0.000009 -11.716794 169.355838 -23.231611 -104.902854 2.279492 0.210397 -2.475492 216.986791 29.095937 46.015002 0.000001 -0.000004 -20.742802 -369.956486 -31.654778 48.327133 0.000000 0.000000 -16.666004 464.066603 2.216639 52.149208 -1.961902 0.232295 -2.727396 -424.263320 -35.982581 -58.201729 0.000007 -0.000008 -20.526804 476.085386 63.674821 -67.985504 -0.000003 0.000004 -16.867304 -2.881398 24.653708 -0.228842
-13.945587 -22.916603 33.577393 1015.518646 -4.988526 20.006789 -0.637403 0.831601 5.390108 -26.639674 14.427187 24.693601 -0.000002 -0.000004 4.429902 5.180458 -5.669384 -0.536789 -0.000008 -0.000011 10.301394 413.516728 1.489919 -22.178924 -0.000001 -0.000003 2.173896 -357.009699 4.192710 4.984182 2.142394 -0.572698 5.717802 -9.835121 -2.937820 11.368315 5.674004 0.000002 -0.000005 121.288997 179.610165 85.201180 -0.000015 0.000004 -12.238705 -305.265306 -380.979865 -325.051325 0.000004 -0.000003 -10.253709 257.891496 30.878291 -65.740496 -2.882608 -1.580101 6.695801 -2.875569 -0.624270 21.129663 -4.235600 0.000000 0.000002 39.773404 -12.822995 113.932480 0.000006 0.000003 -10.709892 -78.608674 -3.917882 -68.607208 -0.000002 -0.000012 -11.716797 169.351890 -23.281087 -104.873183 2.279495 0.210396 -2.475498 217.583353 29.399327 45.704542 0.000003 -0.000001 -20.742802 -370.263435 -31.271990 48.580697 -0.000001 -0.000001 -16.666002 463.776566 2.211774 52.072662 -1.961894 0.232301 -2.727398 -424.237092 -35.975347 -58.154915 0.000006 -0.000009 -20.526802 475.994954 63.757767 -67.878078 -0.000001 -0.000001 -16.867302 -2.773142 24.701340 -0.214078
-13.947796 -22.921906 33.580494 1015.490888 -5.014267 19.930944 -0.637409 0.831598 5.390099 -26.600558 14.386981 24.717683 -0.000007 0.000003 4.429885 5.172645 -5.647409 -0.535276 -0.000008 -0.000002 10.301396 413.530880 1.486273 -22.162962 0.000002 0.000001 2.173911 -357.003196 4.201706 4.988511 2.142396 -0.572698 5.717796 -9.809606 -2.985192 11.308959 5.674006 0.000004 -0.000007 121.315908 179.635041 85.295409 0.000000 -0.000007 -12.238697 -305.066766 -380.868287 -325.011219 0.000009 0.000007 -10.253711 257.647467 30.830357 -65.787829 -2.882606 -1.580097 6.695803 -2.890440 -0.651494 21.335040 -4.235606 0.000000 0.000001 39.824647 -13.022766 113.710909 0.000008 -0.000007 -10.709890 -78.337188 -4.259507 -68.653455 -0.000001 -0.000004 -11.716798 168.944852 -23.189052 -105.212302 2.279500 0.210399 -2.475504 218.380942 29.804353 45.258025 0.000002 -0.000007 -20.742800 -370.668847 -30.758084 48.927077 -0.000000 0.000004 -16.666004 463.395222 2.199274 51.948230 -1.961898 0.232299 -2.727406 -424.220481 -35.986996 -58.107220 0.000001 0.000000 -20.526806 476.059814 63.724886 -67.889751 0.000004 0.000006 -16.867302 -2.790751 24.719057 -0.203651
